<svg width="23" height="20" viewBox="0 0 23 20" fill="none" xmlns="http://www.w3.org/2000/svg">
<path d="M13.8535 15H3.33594L3.33383 5.56625L11.351 10.5138C11.4683 10.5861 11.6074 10.6248 11.75 10.6248C11.8926 10.6248 12.0317 10.5861 12.149 10.5138L20.1641 5.56875V11.25H21.5664V5C21.5658 4.66863 21.4179 4.35098 21.1551 4.11666C20.8922 3.88235 20.5358 3.7505 20.1641 3.75H3.33594C2.96413 3.75033 2.60765 3.88213 2.34474 4.11648C2.08183 4.35083 1.93397 4.66858 1.93359 5V15C1.93415 15.3314 2.08208 15.649 2.34495 15.8833C2.60782 16.1176 2.96418 16.2495 3.33594 16.25H13.8535V15ZM18.6208 5L11.75 9.24L4.87922 5H18.6208Z" fill="white"/>
<path d="M18.7617 17.5009C20.3107 17.5009 21.5664 16.3814 21.5664 15.0004C21.5664 13.6195 20.3107 12.5 18.7617 12.5C17.2127 12.5 15.957 13.6195 15.957 15.0004C15.957 16.3814 17.2127 17.5009 18.7617 17.5009Z" fill="white"/>
</svg>
