<svg width="23" height="20" viewBox="0 0 23 20" fill="none" xmlns="http://www.w3.org/2000/svg">
<path d="M17.3594 8.12556H15.957C15.9565 7.62834 15.7347 7.15163 15.3403 6.80004C14.9459 6.44846 14.4112 6.25072 13.8535 6.25022V5C14.783 5.00099 15.6741 5.33061 16.3313 5.91655C16.9885 6.50249 17.3583 7.29691 17.3594 8.12556Z" fill="white"/>
<path d="M20.1641 8.125H18.7617C18.7603 6.96508 18.2427 5.85305 17.3225 5.03287C16.4024 4.21269 15.1548 3.75132 13.8535 3.75V2.5C15.5266 2.50165 17.1307 3.09482 18.3137 4.14935C19.4968 5.20389 20.1622 6.63367 20.1641 8.125ZM18.7617 18.125H18.6425C4.86452 17.4187 2.90825 7.05625 2.63479 3.89375C2.59205 3.39797 2.772 2.90736 3.13505 2.52983C3.4981 2.1523 4.01452 1.91878 4.57072 1.88063C4.62635 1.87688 4.68221 1.875 4.7383 1.875H8.43348C8.71434 1.87476 8.98881 1.94969 9.22134 2.0901C9.45387 2.23051 9.63374 2.42992 9.73766 2.6625L10.8034 5C10.9061 5.22722 10.9315 5.4763 10.8767 5.71631C10.8218 5.95631 10.6891 6.17667 10.4949 6.35L9.00143 7.69375C9.23377 8.87583 9.86835 9.96561 10.8191 10.8153C11.7699 11.665 12.9908 12.2335 14.3163 12.4437L15.8379 11.1C16.0352 10.9288 16.2848 10.8133 16.5554 10.7677C16.8259 10.7221 17.1056 10.7486 17.3594 10.8438L20.0028 11.7875C20.2598 11.8831 20.4791 12.0446 20.6327 12.2517C20.7863 12.4587 20.8672 12.7018 20.8653 12.95V16.25C20.8653 16.7473 20.6436 17.2242 20.2492 17.5758C19.8547 17.9275 19.3196 18.125 18.7617 18.125ZM4.7383 3.125C4.64622 3.12475 4.55499 3.14068 4.46982 3.17186C4.38464 3.20304 4.30719 3.24887 4.24188 3.30673C4.17658 3.36459 4.1247 3.43336 4.08921 3.50909C4.05371 3.58483 4.0353 3.66605 4.03503 3.74813C4.03503 3.76563 4.03573 3.78292 4.03713 3.8C4.35967 7.5 6.42813 16.25 18.7197 16.875C18.9053 16.8849 19.0877 16.8287 19.2268 16.7188C19.3659 16.6088 19.4503 16.4542 19.4615 16.2887L19.4629 16.25V12.95L16.8195 12.0062L14.8071 13.7875L14.4706 13.75C8.37037 13.0687 7.54299 7.63125 7.54299 7.575L7.50092 7.275L9.49225 5.48125L8.44049 3.125H4.7383Z" fill="white"/>
</svg>
