<svg width="23" height="20" viewBox="0 0 23 20" fill="none" xmlns="http://www.w3.org/2000/svg">
<path d="M11.75 15L7.47985 9.625C6.78091 8.88942 6.3308 7.99197 6.18195 7.03718C6.0331 6.08239 6.19163 5.10956 6.63908 4.23197C7.08653 3.35439 7.80449 2.60818 8.70933 2.08024C9.61417 1.55231 10.6687 1.26439 11.75 1.25C13.2489 1.2632 14.6809 1.80537 15.7323 2.75776C16.7836 3.71015 17.3687 4.99512 17.3594 6.33125C17.3599 7.49683 16.9148 8.62778 16.0973 9.5375L11.75 15ZM11.75 2.5C10.6224 2.51154 9.54604 2.92149 8.75726 3.63982C7.96847 4.35815 7.53174 5.32614 7.54296 6.33125C7.54765 7.24864 7.91793 8.13469 8.5877 8.83125L11.75 12.825L14.9964 8.75C15.6135 8.0634 15.952 7.211 15.957 6.33125C15.9682 5.32614 15.5315 4.35815 14.7427 3.63982C13.9539 2.92149 12.8776 2.51154 11.75 2.5Z" fill="white"/>
<path d="M11.75 6.875C12.5245 6.875 13.1523 6.31536 13.1523 5.625C13.1523 4.93464 12.5245 4.375 11.75 4.375C10.9755 4.375 10.3477 4.93464 10.3477 5.625C10.3477 6.31536 10.9755 6.875 11.75 6.875Z" fill="white"/>
<path d="M20.1641 7.5H18.7617V8.75H20.1641V17.5H3.33594V8.75H4.73828V7.5H3.33594C2.96401 7.5 2.60732 7.6317 2.34433 7.86612C2.08134 8.10054 1.93359 8.41848 1.93359 8.75V17.5C1.93359 17.8315 2.08134 18.1495 2.34433 18.3839C2.60732 18.6183 2.96401 18.75 3.33594 18.75H20.1641C20.536 18.75 20.8927 18.6183 21.1557 18.3839C21.4187 18.1495 21.5664 17.8315 21.5664 17.5V8.75C21.5664 8.41848 21.4187 8.10054 21.1557 7.86612C20.8927 7.6317 20.536 7.5 20.1641 7.5Z" fill="white"/>
</svg>
