<svg width="172" height="29" viewBox="0 0 172 29" fill="none" xmlns="http://www.w3.org/2000/svg">
<ellipse cx="154.789" cy="14.5" rx="16.2672" ry="14.5" fill="#F40404"/>
<path d="M154.232 11.4063C152.002 11.4063 150.204 13.0095 150.204 14.997C150.204 16.9845 152.002 18.5876 154.232 18.5876C156.462 18.5876 158.26 16.9845 158.26 14.997C158.26 13.0095 156.462 11.4063 154.232 11.4063ZM154.232 17.3313C152.791 17.3313 151.613 16.2845 151.613 14.997C151.613 13.7095 152.788 12.6626 154.232 12.6626C155.676 12.6626 156.851 13.7095 156.851 14.997C156.851 16.2845 155.673 17.3313 154.232 17.3313ZM159.365 11.2595C159.365 11.7251 158.944 12.097 158.425 12.097C157.903 12.097 157.486 11.722 157.486 11.2595C157.486 10.797 157.906 10.422 158.425 10.422C158.944 10.422 159.365 10.797 159.365 11.2595ZM162.033 12.1095C161.973 10.9876 161.686 9.99385 160.763 9.1751C159.845 8.35635 158.73 8.1001 157.471 8.04385C156.174 7.97822 152.286 7.97822 150.989 8.04385C149.734 8.09697 148.619 8.35322 147.697 9.17197C146.775 9.99072 146.491 10.9845 146.428 12.1063C146.354 13.2626 146.354 16.7282 146.428 17.8845C146.488 19.0063 146.775 20.0001 147.697 20.8188C148.619 21.6376 149.731 21.8938 150.989 21.9501C152.286 22.0157 156.174 22.0157 157.471 21.9501C158.73 21.897 159.845 21.6407 160.763 20.8188C161.682 20.0001 161.969 19.0063 162.033 17.8845C162.106 16.7282 162.106 13.2657 162.033 12.1095ZM160.357 19.1251C160.083 19.7376 159.554 20.2095 158.863 20.4563C157.829 20.822 155.375 20.7376 154.232 20.7376C153.089 20.7376 150.632 20.8188 149.601 20.4563C148.914 20.2126 148.384 19.7407 148.107 19.1251C147.697 18.2032 147.792 16.0157 147.792 14.997C147.792 13.9782 147.701 11.7876 148.107 10.8688C148.381 10.2563 148.91 9.78447 149.601 9.5376C150.635 9.17197 153.089 9.25635 154.232 9.25635C155.375 9.25635 157.833 9.1751 158.863 9.5376C159.55 9.78135 160.08 10.2532 160.357 10.8688C160.767 11.7907 160.672 13.9782 160.672 14.997C160.672 16.0157 160.767 18.2063 160.357 19.1251Z" fill="white"/>
<ellipse cx="108.792" cy="14.5" rx="16.2672" ry="14.5" fill="#F40404"/>
<path d="M103.893 20.9999H100.637V11.6531H103.893V20.9999ZM102.264 10.3781C101.222 10.3781 100.378 9.60931 100.378 8.68118C100.378 8.23537 100.576 7.80782 100.93 7.49258C101.284 7.17734 101.763 7.00024 102.264 7.00024C102.764 7.00024 103.243 7.17734 103.597 7.49258C103.951 7.80782 104.149 8.23537 104.149 8.68118C104.149 9.60931 103.304 10.3781 102.264 10.3781ZM116.08 20.9999H112.831V16.4499C112.831 15.3656 112.807 13.9749 111.138 13.9749C109.445 13.9749 109.186 15.1531 109.186 16.3718V20.9999H105.933V11.6531H109.056V12.9281H109.102C109.536 12.1937 110.598 11.4187 112.183 11.4187C115.478 11.4187 116.084 13.3531 116.084 15.8656V20.9999H116.08Z" fill="white"/>
<ellipse cx="62.7953" cy="14.5" rx="16.2672" ry="14.5" fill="#F40404"/>
<g clip-path="url(#clip0_0_32)">
<path d="M69.3641 11.741C69.3755 11.8831 69.3755 12.0253 69.3755 12.1674C69.3755 16.5024 65.6739 21.4973 58.9085 21.4973C56.8241 21.4973 54.8879 20.9593 53.2592 20.0253C53.5554 20.0557 53.8401 20.0659 54.1476 20.0659C55.8674 20.0659 57.4506 19.5481 58.7148 18.6649C57.0975 18.6344 55.7421 17.6903 55.2752 16.3908C55.503 16.4212 55.7307 16.4415 55.9699 16.4415C56.3002 16.4415 56.6306 16.4009 56.9381 16.3298C55.2524 16.0253 53.9881 14.7055 53.9881 13.1116V13.071C54.4779 13.3146 55.0474 13.4669 55.651 13.4872C54.6601 12.8983 54.0109 11.8933 54.0109 10.7562C54.0109 10.1471 54.1931 9.58872 54.512 9.10141C56.323 11.0913 59.0451 12.3907 62.0975 12.5329C62.0406 12.2892 62.0064 12.0354 62.0064 11.7816C62.0064 9.9745 63.6465 8.50244 65.6852 8.50244C66.7444 8.50244 67.7011 8.89838 68.3732 9.53797C69.2046 9.39585 70.0018 9.12172 70.708 8.7461C70.4346 9.50753 69.8538 10.1471 69.0907 10.5532C69.831 10.4822 70.5486 10.2994 71.2091 10.0456C70.7081 10.6953 70.0816 11.274 69.3641 11.741Z" fill="white"/>
</g>
<ellipse cx="16.7984" cy="14.5" rx="16.2672" ry="14.5" fill="#F40404"/>
<path d="M20.4144 16L20.9129 13.1044H17.7958V11.2253C17.7958 10.4331 18.2313 9.66094 19.6273 9.66094H21.0444V7.19563C21.0444 7.19563 19.7584 7 18.5289 7C15.9619 7 14.284 8.38688 14.284 10.8975V13.1044H11.4306V16H14.284V23H17.7958V16H20.4144Z" fill="white"/>
<defs>
<clipPath id="clip0_0_32">
<rect width="17.95" height="16" fill="white" transform="translate(53.2592 7)"/>
</clipPath>
</defs>
</svg>
