<svg width="121" height="16" viewBox="0 0 121 16" fill="none" xmlns="http://www.w3.org/2000/svg">
<path d="M113.003 4.40635C111.016 4.40635 109.413 6.00947 109.413 7.99697C109.413 9.98447 111.016 11.5876 113.003 11.5876C114.991 11.5876 116.594 9.98447 116.594 7.99697C116.594 6.00947 114.991 4.40635 113.003 4.40635ZM113.003 10.3313C111.719 10.3313 110.669 9.28447 110.669 7.99697C110.669 6.70947 111.716 5.6626 113.003 5.6626C114.291 5.6626 115.338 6.70947 115.338 7.99697C115.338 9.28447 114.288 10.3313 113.003 10.3313ZM117.578 4.25947C117.578 4.7251 117.203 5.09697 116.741 5.09697C116.275 5.09697 115.903 4.72197 115.903 4.25947C115.903 3.79697 116.278 3.42197 116.741 3.42197C117.203 3.42197 117.578 3.79697 117.578 4.25947ZM119.956 5.10947C119.903 3.9876 119.647 2.99385 118.825 2.1751C118.006 1.35635 117.013 1.1001 115.891 1.04385C114.734 0.978223 111.269 0.978223 110.113 1.04385C108.994 1.09697 108 1.35322 107.178 2.17197C106.356 2.99072 106.103 3.98447 106.047 5.10635C105.981 6.2626 105.981 9.72822 106.047 10.8845C106.1 12.0063 106.356 13.0001 107.178 13.8188C108 14.6376 108.991 14.8938 110.113 14.9501C111.269 15.0157 114.734 15.0157 115.891 14.9501C117.013 14.897 118.006 14.6407 118.825 13.8188C119.644 13.0001 119.9 12.0063 119.956 10.8845C120.022 9.72822 120.022 6.26572 119.956 5.10947ZM118.463 12.1251C118.219 12.7376 117.747 13.2095 117.131 13.4563C116.209 13.822 114.022 13.7376 113.003 13.7376C111.984 13.7376 109.794 13.8188 108.875 13.4563C108.263 13.2126 107.791 12.7407 107.544 12.1251C107.178 11.2032 107.263 9.01572 107.263 7.99697C107.263 6.97822 107.181 4.7876 107.544 3.86885C107.788 3.25635 108.259 2.78447 108.875 2.5376C109.797 2.17197 111.984 2.25635 113.003 2.25635C114.022 2.25635 116.213 2.1751 117.131 2.5376C117.744 2.78135 118.216 3.25322 118.463 3.86885C118.828 4.79072 118.744 6.97822 118.744 7.99697C118.744 9.01572 118.828 11.2063 118.463 12.1251Z" fill="white"/>
<g clip-path="url(#clip0_0_206)">
<path d="M74.1337 13.9999H71.2313V4.65306H74.1337V13.9999ZM72.6809 3.37806C71.7528 3.37806 71 2.60931 71 1.68118C71 1.23537 71.1771 0.807816 71.4923 0.492579C71.8076 0.177342 72.2351 0.000244141 72.6809 0.000244141C73.1267 0.000244141 73.5543 0.177342 73.8695 0.492579C74.1848 0.807816 74.3619 1.23537 74.3619 1.68118C74.3619 2.60931 73.6088 3.37806 72.6809 3.37806ZM84.9969 13.9999H82.1006V9.44993C82.1006 8.36556 82.0787 6.97493 80.5916 6.97493C79.0825 6.97493 78.8513 8.15306 78.8513 9.37181V13.9999H75.9519V4.65306H78.7356V5.92806H78.7762C79.1637 5.19368 80.1103 4.41868 81.5225 4.41868C84.46 4.41868 85 6.35306 85 8.86556V13.9999H84.9969Z" fill="white"/>
<rect x="85" y="5" width="20" height="9" fill="#D9D9D9"/>
</g>
<path d="M49.3553 4.741C49.3655 4.88313 49.3655 5.02528 49.3655 5.16741C49.3655 9.50241 46.066 14.4973 40.0355 14.4973C38.1777 14.4973 36.4518 13.9593 35 13.0253C35.264 13.0557 35.5177 13.0659 35.7919 13.0659C37.3248 13.0659 38.736 12.5481 39.8629 11.6649C38.4213 11.6344 37.2132 10.6903 36.7969 9.39075C37 9.42119 37.203 9.4415 37.4162 9.4415C37.7107 9.4415 38.0051 9.40088 38.2792 9.32985C36.7767 9.02525 35.6497 7.70547 35.6497 6.11157V6.07097C36.0862 6.31463 36.5939 6.46691 37.1319 6.48719C36.2487 5.89835 35.67 4.89328 35.67 3.75622C35.67 3.1471 35.8324 2.58872 36.1167 2.10141C37.7309 4.09125 40.1573 5.39072 42.8781 5.53288C42.8274 5.28922 42.7969 5.03544 42.7969 4.78163C42.7969 2.9745 44.2588 1.50244 46.0761 1.50244C47.0202 1.50244 47.873 1.89838 48.472 2.53797C49.2131 2.39585 49.9238 2.12172 50.5532 1.7461C50.3096 2.50753 49.7918 3.14713 49.1116 3.55319C49.7715 3.48216 50.4111 3.29938 50.9999 3.0456C50.5533 3.69532 49.9949 4.27397 49.3553 4.741Z" fill="white"/>
<path d="M11.7231 9L12.1675 6.10437H9.38905V4.22531C9.38905 3.43313 9.77718 2.66094 11.0216 2.66094H12.2847V0.195625C12.2847 0.195625 11.1384 0 10.0425 0C7.75436 0 6.25874 1.38688 6.25874 3.8975V6.10437H3.7153V9H6.25874V16H9.38905V9H11.7231Z" fill="white"/>
<defs>
<clipPath id="clip0_0_206">
<rect width="16" height="16" fill="white" transform="translate(70)"/>
</clipPath>
</defs>
</svg>
